<?xml version="1.0" encoding="UTF-8" standalone="no"?>
<!-- Created with Inkscape (http://www.inkscape.org/) -->

<svg
   width="210mm"
   height="297mm"
   viewBox="0 0 210 297"
   version="1.1"
   id="svg1"
   inkscape:version="1.4.4 (dcaf3e7, 2026-05-05)"
   sodipodi:docname="drawing.svg"
   xmlns:inkscape="http://www.inkscape.org/namespaces/inkscape"
   xmlns:sodipodi="http://sodipodi.sourceforge.net/DTD/sodipodi-0.dtd"
   xmlns="http://www.w3.org/2000/svg"
   xmlns:svg="http://www.w3.org/2000/svg">
  <sodipodi:namedview
     id="namedview1"
     pagecolor="#ffffff"
     bordercolor="#000000"
     borderopacity="0.25"
     inkscape:showpageshadow="2"
     inkscape:pageopacity="0.0"
     inkscape:pagecheckerboard="0"
     inkscape:deskcolor="#d1d1d1"
     inkscape:document-units="mm"
     inkscape:zoom="0.68862935"
     inkscape:cx="397.16576"
     inkscape:cy="561.25984"
     inkscape:window-width="1920"
     inkscape:window-height="991"
     inkscape:window-x="-9"
     inkscape:window-y="-9"
     inkscape:window-maximized="1"
     inkscape:current-layer="layer1" />
  <defs
     id="defs1" />
  <g
     inkscape:label="Layer 1"
     inkscape:groupmode="layer"
     id="layer1">
    <path
       style="fill:#000000;stroke-width:0.264583"
       d="M 54.174643,49.564035 C 44.500418,71.030259 89.62959,79.506642 73.001294,100.66493"
       id="path1" />
    <path
       style="fill:#000000;stroke-width:0.264583"
       d="m 108.34929,50.716687 c 23.66731,21.383067 -32.741281,14.807833 0,0 z"
       id="path2" />
    <path
       style="fill:#000000;stroke-width:0.264583"
       d="M 16.905562,25.358344 C -41.500152,103.10748 70.475582,171.92264 82.037228,73.589206 168.97969,57.57699 152.15498,325.55029 216.01896,163.95661 232.03183,63.578905 102.90205,-45.526162 13.447606,26.126778"
       id="path3" />
    <path
       style="fill:#000000;stroke-width:0.264583"
       d="m 26.126778,220.92496 c -18.5001477,-6.41389 -3.034022,26.694 6.531691,13.83183"
       id="path4" />
    <path
       style="fill:#000000;stroke-width:0.264583"
       d="M 8.0685639,176.35575 -44.56921,96.054332"
       id="path5" />
    <path
       style="fill:#000000;stroke-width:0.264583"
       d="m 23.821474,188.26649 c -0.67436,-2.69744 -2.979664,-11.91865 -3.457956,-13.83182"
       id="path6" />
    <path
       style="fill:#000000;stroke-width:0.264583"
       d="M -25.742561,187.49806 -100.66494,37.653298"
       id="path7" />
  </g>
</svg>
